<svg width="25" height="24" viewBox="0 0 25 24" fill="none" xmlns="http://www.w3.org/2000/svg">
<g id="inventory_2">
<mask id="mask0_25_87" style="mask-type:alpha" maskUnits="userSpaceOnUse" x="0" y="0" width="25" height="24">
<rect id="Bounding box" x="0.933594" width="24" height="24" fill="#D9D9D9"/>
</mask>
<g mask="url(#mask0_25_87)">
<path id="inventory_2_2" d="M5.93359 22C5.38359 22 4.91276 21.8042 4.52109 21.4125C4.12943 21.0208 3.93359 20.55 3.93359 20V8.725C3.63359 8.54167 3.39193 8.30417 3.20859 8.0125C3.02526 7.72083 2.93359 7.38333 2.93359 7V4C2.93359 3.45 3.12943 2.97917 3.52109 2.5875C3.91276 2.19583 4.38359 2 4.93359 2H20.9336C21.4836 2 21.9544 2.19583 22.3461 2.5875C22.7378 2.97917 22.9336 3.45 22.9336 4V7C22.9336 7.38333 22.8419 7.72083 22.6586 8.0125C22.4753 8.30417 22.2336 8.54167 21.9336 8.725V20C21.9336 20.55 21.7378 21.0208 21.3461 21.4125C20.9544 21.8042 20.4836 22 19.9336 22H5.93359ZM5.93359 9V20H19.9336V9H5.93359ZM4.93359 7H20.9336V4H4.93359V7ZM9.93359 14H15.9336V12H9.93359V14Z" fill="white"/>
</g>
</g>
</svg>
