<svg width="25" height="25" viewBox="0 0 25 25" fill="none" xmlns="http://www.w3.org/2000/svg">
<g id="notifications">
<mask id="mask0_12_164" style="mask-type:alpha" maskUnits="userSpaceOnUse" x="0" y="0" width="25" height="25">
<rect id="Bounding box" x="0.5" y="0.5" width="24" height="24" fill="#D9D9D9"/>
</mask>
<g mask="url(#mask0_12_164)">
<path id="notifications_2" d="M4.5 19.5V17.5H6.5V10.5C6.5 9.11667 6.91667 7.8875 7.75 6.8125C8.58333 5.7375 9.66667 5.03333 11 4.7V4C11 3.58333 11.1458 3.22917 11.4375 2.9375C11.7292 2.64583 12.0833 2.5 12.5 2.5C12.9167 2.5 13.2708 2.64583 13.5625 2.9375C13.8542 3.22917 14 3.58333 14 4V4.7C15.3333 5.03333 16.4167 5.7375 17.25 6.8125C18.0833 7.8875 18.5 9.11667 18.5 10.5V17.5H20.5V19.5H4.5ZM12.5 22.5C11.95 22.5 11.4792 22.3042 11.0875 21.9125C10.6958 21.5208 10.5 21.05 10.5 20.5H14.5C14.5 21.05 14.3042 21.5208 13.9125 21.9125C13.5208 22.3042 13.05 22.5 12.5 22.5ZM8.5 17.5H16.5V10.5C16.5 9.4 16.1083 8.45833 15.325 7.675C14.5417 6.89167 13.6 6.5 12.5 6.5C11.4 6.5 10.4583 6.89167 9.675 7.675C8.89167 8.45833 8.5 9.4 8.5 10.5V17.5Z" fill="white"/>
</g>
</g>
</svg>
