<svg width="25" height="25" viewBox="0 0 25 25" fill="none" xmlns="http://www.w3.org/2000/svg">
<g id="page_info_24dp_FILL0_wght400_GRAD0_opsz24 1">
<path id="Vector" d="M18.25 20.75C17.2 20.75 16.3125 20.3875 15.5875 19.6625C14.8625 18.9375 14.5 18.05 14.5 17C14.5 15.95 14.8625 15.0625 15.5875 14.3375C16.3125 13.6125 17.2 13.25 18.25 13.25C19.3 13.25 20.1875 13.6125 20.9125 14.3375C21.6375 15.0625 22 15.95 22 17C22 18.05 21.6375 18.9375 20.9125 19.6625C20.1875 20.3875 19.3 20.75 18.25 20.75ZM18.25 18.75C18.7333 18.75 19.1458 18.5792 19.4875 18.2375C19.8292 17.8958 20 17.4833 20 17C20 16.5167 19.8292 16.1042 19.4875 15.7625C19.1458 15.4208 18.7333 15.25 18.25 15.25C17.7667 15.25 17.3542 15.4208 17.0125 15.7625C16.6708 16.1042 16.5 16.5167 16.5 17C16.5 17.4833 16.6708 17.8958 17.0125 18.2375C17.3542 18.5792 17.7667 18.75 18.25 18.75ZM4.5 18V16H12.5V18H4.5ZM6.75 11.75C5.7 11.75 4.8125 11.3875 4.0875 10.6625C3.3625 9.9375 3 9.05 3 8C3 6.95 3.3625 6.0625 4.0875 5.3375C4.8125 4.6125 5.7 4.25 6.75 4.25C7.8 4.25 8.6875 4.6125 9.4125 5.3375C10.1375 6.0625 10.5 6.95 10.5 8C10.5 9.05 10.1375 9.9375 9.4125 10.6625C8.6875 11.3875 7.8 11.75 6.75 11.75ZM6.75 9.75C7.23333 9.75 7.64583 9.57917 7.9875 9.2375C8.32917 8.89583 8.5 8.48333 8.5 8C8.5 7.51667 8.32917 7.10417 7.9875 6.7625C7.64583 6.42083 7.23333 6.25 6.75 6.25C6.26667 6.25 5.85417 6.42083 5.5125 6.7625C5.17083 7.10417 5 7.51667 5 8C5 8.48333 5.17083 8.89583 5.5125 9.2375C5.85417 9.57917 6.26667 9.75 6.75 9.75ZM12.5 9V7H20.5V9H12.5Z" fill="white"/>
</g>
</svg>
