<svg width="25" height="25" viewBox="0 0 25 25" fill="none" xmlns="http://www.w3.org/2000/svg">
<g id="topic">
<mask id="mask0_25_94" style="mask-type:alpha" maskUnits="userSpaceOnUse" x="0" y="0" width="25" height="25">
<rect id="Bounding box" x="0.5" y="0.5" width="24" height="24" fill="#D9D9D9"/>
</mask>
<g mask="url(#mask0_25_94)">
<path id="topic_2" d="M6.5 16.5H14.5V14.5H6.5V16.5ZM6.5 12.5H18.5V10.5H6.5V12.5ZM4.5 20.5C3.95 20.5 3.47917 20.3042 3.0875 19.9125C2.69583 19.5208 2.5 19.05 2.5 18.5V6.5C2.5 5.95 2.69583 5.47917 3.0875 5.0875C3.47917 4.69583 3.95 4.5 4.5 4.5H10.5L12.5 6.5H20.5C21.05 6.5 21.5208 6.69583 21.9125 7.0875C22.3042 7.47917 22.5 7.95 22.5 8.5V18.5C22.5 19.05 22.3042 19.5208 21.9125 19.9125C21.5208 20.3042 21.05 20.5 20.5 20.5H4.5ZM4.5 18.5H20.5V8.5H11.675L9.675 6.5H4.5V18.5Z" fill="white"/>
</g>
</g>
</svg>
